<?xml version="1.0" standalone="no"?>
<!DOCTYPE svg PUBLIC "-//W3C//DTD SVG 20010904//EN"
 "http://www.w3.org/TR/2001/REC-SVG-20010904/DTD/svg10.dtd">
<svg version="1.0" xmlns="http://www.w3.org/2000/svg"
 width="466.000000pt" height="466.000000pt" viewBox="0 0 466.000000 466.000000"
 preserveAspectRatio="xMidYMid meet">
<metadata>
Created by potrace 1.14, written by Peter Selinger 2001-2017
</metadata>
<g transform="translate(0.000000,466.000000) scale(0.100000,-0.100000)"
fill="#000000" stroke="none">
<path d="M851 3429 c-418 -64 -705 -388 -654 -738 24 -165 90 -279 220 -382
96 -76 152 -104 448 -223 132 -53 258 -107 280 -119 82 -46 96 -141 30 -203
-42 -39 -99 -54 -213 -54 -143 0 -269 42 -434 145 -42 26 -76 41 -88 38 -25
-7 -310 -339 -310 -362 0 -55 251 -200 445 -256 335 -96 685 -66 922 81 189
117 305 301 320 508 17 247 -87 443 -303 566 -29 17 -170 76 -314 130 -144 55
-286 112 -316 126 -62 29 -94 70 -94 122 0 89 66 133 207 140 125 6 216 -16
349 -83 70 -36 111 -52 124 -47 26 10 270 310 270 332 0 41 -158 147 -304 205
-145 57 -236 76 -386 80 -74 2 -164 0 -199 -6z"/>
<path d="M2402 3428 c-9 -12 -662 -2149 -662 -2168 0 -5 7 -16 16 -24 23 -23
545 -24 564 -1 7 8 34 108 61 221 26 113 53 212 60 220 18 22 591 21 609 -1 7
-8 34 -108 61 -221 26 -113 53 -212 60 -220 9 -11 61 -14 295 -14 l284 0 11
24 c10 20 -38 185 -315 1097 -180 590 -332 1079 -338 1086 -15 19 -691 19
-706 1z m352 -445 c2 -10 23 -101 46 -203 23 -102 64 -276 91 -388 37 -156 46
-208 38 -223 -9 -18 -20 -19 -186 -17 -165 3 -176 4 -183 23 -4 12 13 104 45
235 28 118 69 299 91 403 21 103 42 187 46 187 4 0 9 -8 12 -17z"/>
<path d="M3847 3422 c-16 -17 -17 -107 -17 -1095 0 -964 2 -1077 16 -1091 13
-14 53 -16 284 -16 256 0 270 1 280 19 7 13 10 373 10 1095 0 964 -2 1076 -16
1090 -13 14 -53 16 -278 16 -242 0 -264 -1 -279 -18z"/>
</g>
</svg>
