<?xml version="1.0" standalone="no"?>
<!DOCTYPE svg PUBLIC "-//W3C//DTD SVG 20010904//EN"
 "http://www.w3.org/TR/2001/REC-SVG-20010904/DTD/svg10.dtd">
<svg version="1.0" xmlns="http://www.w3.org/2000/svg"
 width="512.000000pt" height="512.000000pt" viewBox="0 0 512.000000 512.000000"
 preserveAspectRatio="xMidYMid meet">
<metadata>
Created by potrace 1.14, written by Peter Selinger 2001-2017
</metadata>
<g transform="translate(0.000000,512.000000) scale(0.100000,-0.100000)"
fill="#000000" stroke="none">
<path d="M105 5003 c3 -158 14 -296 29 -363 10 -49 8 -106 -7 -165 -3 -11 -6
-23 -6 -27 -2 -15 -92 -98 -106 -98 -13 0 -15 -266 -15 -2175 l0 -2175 706 0
706 0 -6 32 c-3 18 -10 148 -15 288 -9 250 -33 518 -51 564 -8 22 -12 23 -62
15 -29 -4 -73 -10 -98 -13 -25 -2 -72 -9 -105 -15 -33 -6 -122 -13 -198 -16
-156 -6 -176 -1 -237 66 -47 50 -61 68 -59 74 0 3 -2 22 -5 43 -9 53 -10 524
-2 607 4 39 7 77 7 85 0 8 5 53 10 100 6 47 12 207 14 355 2 149 7 326 10 395
4 69 8 233 10 365 2 212 4 245 21 280 26 54 80 108 129 127 45 18 189 36 340
43 114 5 191 13 255 26 25 5 63 11 85 13 22 2 56 6 75 10 19 3 53 8 75 10 22
2 56 6 75 10 19 3 94 8 165 11 72 2 130 5 130 6 0 0 10 2 22 3 12 1 19 -2 16
-7 -3 -5 3 -6 16 -2 13 4 21 2 21 -5 0 -7 7 -9 16 -6 10 4 25 -1 35 -10 18
-16 19 -15 20 22 l1 39 9 -44 c5 -24 6 -49 2 -55 -3 -6 10 4 30 23 l36 34 45
-27 c26 -15 50 -24 56 -21 5 3 24 -7 42 -23 56 -48 81 -62 114 -62 43 0 122
29 231 84 51 25 103 46 115 46 13 0 41 7 63 15 22 8 47 14 56 15 21 0 45 -50
29 -60 -7 -4 -11 -11 -11 -16 1 -5 -2 -30 -5 -56 -6 -47 -8 -48 -40 -48 -19 0
-34 -4 -34 -10 0 -5 -11 -10 -25 -10 -14 0 -39 -13 -57 -30 -29 -28 -41 -34
-61 -31 -4 0 -6 -4 -5 -11 4 -15 -22 -18 -41 -4 -11 8 -13 8 -8 -1 5 -7 0 -9
-13 -6 -11 3 -20 0 -20 -6 0 -5 -7 -8 -15 -5 -8 4 -26 -7 -44 -26 -20 -23 -30
-28 -34 -18 -4 10 -7 10 -16 -2 -8 -11 -7 -16 4 -18 14 -3 19 -15 16 -34 0 -5
9 -18 21 -30 l23 -23 -27 -9 c-26 -9 -53 -50 -43 -66 3 -5 -9 -11 -26 -15 -23
-5 -34 -3 -44 12 -8 10 -15 22 -15 27 0 4 -9 6 -20 3 -12 -3 -20 0 -20 7 0 7
-11 18 -25 24 -14 6 -25 8 -25 3 0 -5 -24 -7 -52 -4 -29 2 -74 6 -100 7 l-48
2 0 -33 c0 -23 5 -33 16 -33 8 0 24 -5 34 -10 27 -15 14 -40 -21 -40 -34 0
-35 -7 -14 -78 18 -58 41 -77 86 -67 20 5 38 1 54 -9 13 -9 31 -16 39 -16 8 0
18 -5 22 -12 4 -7 3 -8 -4 -4 -7 4 -12 2 -12 -4 0 -7 -7 -10 -15 -7 -8 4 -17
2 -20 -3 -9 -15 -78 -11 -99 5 -26 20 -36 11 -36 -32 0 -47 49 -96 116 -116
27 -8 61 -21 76 -29 l27 -15 -59 -62 c-33 -34 -60 -66 -60 -71 0 -6 -7 -10
-17 -10 -9 0 -14 -3 -11 -6 9 -8 -71 -81 -103 -94 -15 -7 -30 -22 -33 -36 -4
-14 -14 -28 -24 -31 -33 -12 -150 -144 -221 -249 -39 -57 -71 -107 -71 -110 0
-3 19 11 43 31 23 20 75 61 114 92 40 30 73 60 73 66 0 6 3 7 7 4 3 -4 13 -1
22 6 22 19 206 103 260 118 55 16 60 27 173 357 16 46 40 42 37 -5 -3 -55 0
-75 10 -69 9 6 31 -59 31 -91 0 -11 6 -38 14 -59 7 -22 16 -68 19 -103 4 -35
8 -66 10 -68 6 -6 37 8 37 17 0 5 14 11 30 15 17 4 28 10 25 14 -6 11 25 37
53 44 15 4 22 1 19 -6 -3 -7 -10 -11 -16 -10 -6 2 -11 -4 -11 -12 0 -8 -6 -15
-13 -15 -7 0 -18 -9 -25 -20 -7 -11 -19 -20 -27 -20 -13 0 -13 -2 -3 -14 7 -8
17 -12 22 -9 4 3 12 0 16 -7 11 -18 57 -4 65 20 4 11 11 18 16 15 5 -4 12 1
15 9 3 9 15 16 25 16 10 0 30 10 45 23 14 12 30 23 35 23 5 1 11 3 14 4 3 1 9
3 14 4 5 0 13 4 17 8 4 5 18 8 31 8 38 0 61 17 58 43 -2 13 2 24 9 24 29 1 47
14 131 94 173 166 213 199 231 192 12 -4 15 -3 10 5 -4 7 -1 12 8 12 9 0 16 5
16 10 0 6 7 10 16 10 14 0 15 -7 10 -40 -3 -22 -4 -40 -1 -40 7 0 60 116 79
174 18 52 51 106 66 106 16 0 38 -54 35 -84 -5 -44 36 -106 69 -106 7 0 20
-10 29 -22 8 -13 24 -34 36 -47 11 -13 21 -30 21 -38 0 -7 6 -13 14 -13 15 0
16 -16 3 -37 -6 -9 -3 -11 7 -7 9 3 16 1 16 -5 0 -6 -5 -11 -11 -11 -15 0 -2
-52 17 -66 12 -10 12 -13 2 -18 -10 -5 -10 -7 0 -12 6 -3 12 -10 12 -15 0 -6
-4 -7 -10 -4 -14 9 -13 -8 2 -23 9 -9 9 -12 0 -12 -9 0 -9 -7 -1 -27 6 -16 12
-53 13 -83 1 -44 -2 -58 -19 -72 -11 -9 -24 -13 -30 -10 -18 11 -36 11 -34 -1
2 -21 -13 -57 -22 -52 -4 3 -7 -7 -6 -22 1 -18 -3 -27 -10 -26 -7 2 -12 -2
-10 -8 1 -6 -9 -13 -22 -15 -14 -3 -31 -13 -38 -24 -8 -11 -19 -17 -25 -14 -6
4 -8 2 -5 -3 7 -12 -59 -56 -72 -49 -4 3 -13 1 -20 -3 -10 -7 -8 -13 9 -29 12
-11 17 -22 11 -26 -5 -4 -12 -2 -16 3 -3 6 -12 8 -21 4 -12 -5 -12 -7 2 -18
10 -7 19 -20 20 -31 2 -10 5 -29 8 -43 3 -14 3 -20 0 -13 -8 17 -27 15 -21 -2
4 -10 1 -13 -9 -9 -8 3 -13 12 -10 20 3 8 1 11 -4 8 -14 -9 -12 -21 4 -38 13
-13 12 -14 -10 -15 -14 0 -31 -5 -37 -11 -8 -8 -8 -11 1 -11 7 0 12 -9 12 -20
0 -24 -13 -26 -34 -5 -8 8 -19 15 -25 15 -6 0 -10 5 -8 12 1 7 -4 13 -10 14
-26 3 -28 5 -14 13 9 6 6 8 -12 8 -20 0 -25 -4 -22 -19 3 -15 1 -17 -9 -9 -7
6 -15 8 -18 5 -3 -3 -5 3 -4 13 0 12 -7 19 -21 21 -13 2 -23 -1 -23 -7 0 -6
-5 -11 -11 -11 -5 0 -7 4 -4 10 3 5 -3 10 -14 10 -12 0 -21 6 -21 14 0 8 -5
18 -12 22 -7 5 -8 2 -3 -7 5 -8 4 -11 -1 -6 -9 9 -11 14 -13 47 0 11 -10 29
-20 39 -11 11 -15 23 -10 28 5 5 3 17 -6 29 -12 15 -16 16 -24 5 -5 -8 -11 -9
-15 -3 -3 6 -2 13 4 17 17 10 1 25 -27 25 -17 0 -27 -7 -30 -20 -5 -19 -7 -20
-29 -5 -21 13 -24 13 -24 1 0 -8 -9 -17 -19 -21 -10 -3 -21 -15 -24 -27 -5
-18 -9 -19 -21 -9 -12 10 -15 7 -18 -21 -2 -22 -8 -32 -17 -30 -12 3 -12 0 -1
-12 7 -9 8 -16 3 -16 -6 0 -20 -9 -33 -20 -13 -11 -26 -20 -30 -20 -14 0 -19
29 -7 34 7 3 3 4 -8 1 -16 -4 -21 0 -23 20 -2 25 -1 25 23 9 14 -9 29 -14 33
-10 7 8 -18 27 -28 21 -4 -2 -14 9 -24 25 -13 23 -15 34 -6 50 9 17 8 27 -5
47 l-17 25 -28 -27 c-86 -82 -168 -339 -185 -577 -8 -106 7 -340 31 -473 32
-186 102 -354 193 -468 77 -95 125 -135 221 -182 64 -31 86 -37 150 -38 58 -2
82 2 103 16 27 17 27 17 27 -8 0 -35 -36 -141 -66 -193 l-25 -43 940 2 941 1
0 2559 0 2559 -31 0 c-27 0 -30 -3 -29 -27 1 -16 1 -30 0 -33 -1 -3 -3 -13 -5
-23 -5 -27 -77 -95 -105 -100 -14 -3 -41 -8 -60 -12 -19 -3 -55 -8 -80 -10
-25 -2 -56 -6 -70 -9 -14 -4 -47 -9 -74 -13 l-49 -6 6 64 c4 35 10 88 13 117
l7 52 -107 0 c-104 0 -112 -3 -107 -33 1 -4 -5 -17 -13 -29 -8 -11 -12 -27 -9
-34 3 -8 0 -20 -6 -28 -6 -7 -12 -26 -13 -42 -1 -16 -8 -37 -16 -46 -8 -9 -11
-21 -8 -27 4 -5 2 -12 -4 -16 -6 -4 -8 -10 -5 -15 3 -4 -2 -13 -10 -20 -8 -7
-15 -24 -15 -39 0 -15 -13 -41 -31 -61 -17 -19 -35 -46 -40 -59 -5 -13 -12
-21 -16 -17 -3 3 -12 1 -20 -5 -10 -9 -18 -8 -33 6 -11 10 -20 13 -20 7 0 -7
-6 -12 -14 -12 -8 0 -27 -5 -43 -11 -22 -8 -24 -12 -13 -19 13 -8 12 -10 -3
-10 -10 0 -25 -6 -33 -12 -28 -24 -54 -52 -54 -58 0 -7 36 -45 64 -68 9 -8 14
-21 11 -31 -3 -12 1 -17 16 -18 28 -2 87 -72 81 -95 -2 -10 -11 -18 -19 -18
-8 0 -11 -5 -8 -11 4 -6 12 -8 19 -6 21 8 18 -45 -4 -60 -26 -18 -25 -31 3
-73 14 -21 24 -53 26 -80 1 -25 6 -46 11 -48 5 -2 6 -10 3 -19 -4 -10 -2 -14
4 -10 7 4 12 -6 14 -26 6 -48 -1 -77 -17 -77 -21 0 -17 -21 5 -27 13 -3 18
-10 14 -21 -4 -10 -2 -13 5 -8 8 5 12 0 12 -13 0 -10 6 -22 13 -24 7 -4 6 -6
-5 -6 -11 -1 -15 -7 -11 -21 3 -11 9 -20 14 -20 5 0 9 -7 9 -16 0 -8 -4 -13
-9 -10 -9 6 -21 -33 -27 -89 -6 -46 -9 -59 -19 -74 -5 -10 -4 -16 3 -19 16 -5
15 -32 0 -32 -8 0 -9 -3 -3 -8 6 -4 9 -25 8 -47 -2 -22 -3 -50 -4 -62 -1 -13
-8 -28 -15 -34 -8 -6 -11 -15 -8 -20 3 -5 -1 -9 -8 -9 -9 0 -9 -3 2 -10 10 -6
11 -10 3 -10 -8 0 -13 -15 -13 -40 0 -31 -3 -38 -15 -34 -8 4 -15 1 -15 -5 0
-6 4 -11 9 -11 5 0 7 -9 4 -20 -3 -11 -10 -17 -17 -13 -6 4 -5 -1 3 -10 14
-17 3 -24 -14 -9 -6 5 -17 1 -27 -9 -14 -15 -15 -21 -5 -31 17 -15 10 -58 -9
-58 -8 0 -14 -7 -14 -15 0 -9 -6 -12 -17 -8 -12 5 -14 3 -8 -8 8 -12 6 -12 -8
0 -15 12 -17 12 -11 -4 5 -12 4 -16 -3 -12 -6 4 -14 1 -17 -5 -5 -10 -7 -10
-12 0 -3 6 -10 12 -15 12 -6 0 -7 -5 -3 -12 5 -8 2 -9 -9 -5 -9 3 -19 2 -22
-4 -4 -5 -10 -7 -15 -4 -4 3 -10 -2 -14 -10 -4 -11 1 -15 18 -15 14 0 27 5 29
10 3 6 4 5 3 -2 -1 -7 -12 -15 -24 -18 -20 -5 -21 -7 -7 -33 8 -15 9 -25 3
-21 -7 5 -8 3 -3 -5 4 -7 15 -11 25 -8 13 3 17 0 13 -9 -3 -7 -8 -13 -11 -12
-19 2 -30 -3 -35 -16 -4 -11 -1 -13 11 -9 15 6 15 5 3 -10 -28 -35 -58 -15
-41 27 6 17 6 26 0 26 -6 0 -10 -8 -10 -18 0 -9 -9 -23 -20 -30 -11 -6 -17
-18 -14 -26 8 -21 -46 -27 -78 -8 -20 11 -28 24 -28 44 0 36 -13 42 -43 18
-16 -13 -28 -16 -32 -10 -3 5 -2 10 2 10 5 0 10 37 12 82 1 45 5 86 8 91 2 4
6 90 8 190 2 106 10 217 19 266 8 47 13 88 11 91 -3 4 -18 13 -35 20 -27 11
-30 17 -30 57 0 27 4 42 10 38 5 -3 10 -15 10 -25 0 -20 17 -36 28 -26 3 4 0
16 -7 28 -9 15 -10 23 -1 32 8 8 10 7 6 -4 -6 -15 20 -58 29 -49 2 3 10 41 15
85 12 87 33 185 87 404 40 166 83 382 83 420 0 33 44 210 59 239 10 18 30 115
56 264 l5 27 -236 0 c-199 0 -235 -2 -240 -15 -4 -8 -10 -15 -16 -15 -5 0 -35
-26 -66 -58 -31 -32 -74 -71 -94 -86 -21 -16 -38 -35 -38 -42 0 -8 -5 -14 -10
-14 -6 0 -21 -10 -34 -22 -12 -13 -34 -29 -49 -37 -46 -24 -69 -73 -62 -126 6
-34 3 -51 -9 -70 -9 -14 -14 -30 -11 -34 3 -5 -2 -17 -11 -26 -22 -21 -66 -87
-68 -100 -1 -5 -5 -15 -9 -22 -5 -8 6 -21 32 -37 48 -31 59 -46 32 -46 -31 0
-222 30 -232 36 -15 9 -10 21 45 107 56 87 89 147 100 185 7 22 7 22 -76 16
-46 -3 -110 -10 -143 -15 -91 -15 -95 -16 -170 -24 -38 -5 -80 -8 -92 -7 -32
2 -91 38 -132 80 l-36 37 -2 105 c-1 58 -3 133 -5 168 l-2 62 -1162 0 -1162 0
3 -117z m2619 -638 c-10 -8 -25 -15 -32 -15 -7 0 -27 -7 -43 -16 -17 -8 -33
-13 -36 -10 -9 8 87 52 121 55 6 1 1 -6 -10 -14z m891 -136 c29 -26 35 -38 35
-73 0 -29 3 -37 10 -26 7 12 10 11 16 -5 5 -11 14 -26 21 -34 26 -25 4 -24
-27 3 -17 14 -39 26 -49 26 -9 0 -22 5 -28 11 -15 15 -83 -16 -90 -41 -3 -11
-8 -20 -12 -20 -3 0 -15 -7 -25 -15 -19 -14 -19 -16 -2 -34 17 -19 17 -19 -2
-14 -17 4 -20 12 -17 59 2 31 9 60 18 69 9 8 25 27 37 42 16 20 23 24 32 15 7
-7 20 -12 30 -12 10 0 18 -6 18 -12 0 -9 3 -9 9 1 8 12 12 12 25 2 14 -12 16
-10 16 8 0 15 -9 25 -30 32 -19 7 -30 18 -30 30 0 25 3 24 45 -12z m-1026 4
c-25 -32 -40 -64 -34 -73 4 -6 2 -10 -4 -10 -5 0 -11 -10 -13 -22 -2 -14 -13
-25 -28 -29 -14 -4 -19 -7 -13 -8 32 -3 123 -56 168 -99 74 -69 148 -160 140
-172 -3 -5 -15 -10 -27 -10 -20 0 -20 -1 -3 -26 13 -20 14 -28 5 -34 -9 -5 -9
-9 -1 -14 6 -4 15 -5 20 -2 10 6 24 -20 25 -44 1 -23 -31 -50 -51 -44 -10 4
-45 17 -78 29 -33 13 -80 26 -105 30 -25 4 -52 11 -60 16 -27 15 58 10 97 -6
49 -21 63 -18 33 5 -43 33 -111 42 -227 28 l-103 -12 -26 -43 c-13 -24 -27
-43 -30 -43 -3 0 -2 6 2 13 4 7 3 9 -2 4 -11 -11 -12 -77 -1 -77 4 0 5 -4 2
-10 -3 -5 -12 -10 -20 -10 -10 0 -13 12 -10 49 3 38 -1 56 -16 75 -10 13 -19
31 -19 39 0 8 -9 21 -21 28 l-20 14 25 46 c14 25 35 72 46 103 47 138 94 189
173 189 21 0 33 3 27 7 -9 5 0 24 30 63 37 50 46 56 83 60 23 2 44 4 46 5 2 1
-2 -6 -10 -15z m302 -99 c21 -13 40 -27 42 -32 12 -18 -13 -33 -59 -37 -27 -1
-70 -9 -96 -16 -38 -10 -50 -10 -63 1 -28 23 -17 53 33 88 53 37 80 36 143 -4z
m753 -92 c21 -76 20 -96 -2 -52 -24 48 -52 53 -52 8 0 -18 5 -40 10 -48 8 -13
10 -12 10 3 0 21 16 22 24 1 9 -24 7 -54 -4 -54 -5 0 -7 -7 -4 -15 10 -25 21
-17 32 23 l10 37 1 -35 c1 -24 -5 -41 -19 -53 -24 -21 -40 -22 -40 -3 0 8 -14
43 -31 79 -39 85 -38 140 4 145 15 2 27 8 27 13 0 5 4 9 9 9 4 0 16 -26 25
-58z m-158 -9 c-10 -10 -19 5 -10 18 6 11 8 11 12 0 2 -7 1 -15 -2 -18z m-791
-3 c25 -27 7 -46 -23 -24 -24 17 -30 44 -9 44 8 0 22 -9 32 -20z m785 -72 c0
-4 -10 -8 -22 -8 -18 0 -20 2 -9 9 13 8 13 12 1 28 -13 16 -12 16 8 -1 12 -11
22 -23 22 -28z m290 -39 c0 -5 -4 -9 -10 -9 -5 0 -10 7 -10 16 0 8 5 12 10 9
6 -3 10 -10 10 -16z m-549 -14 c16 -9 27 -20 24 -25 -3 -4 0 -10 7 -12 7 -3
-1 -17 -22 -37 l-35 -33 43 6 c26 4 41 3 38 -3 -7 -11 -105 -26 -113 -17 -4 4
11 24 32 46 38 38 38 40 20 54 -22 16 -35 12 -35 -10 0 -9 -5 -24 -10 -34 -10
-18 -12 -18 -40 -2 -32 18 -41 39 -12 27 30 -12 36 -10 40 10 4 20 20 45 29
45 2 0 17 -7 34 -15z m269 -75 c0 -5 -7 -7 -15 -4 -8 4 -15 8 -15 10 0 2 7 4
15 4 8 0 15 -4 15 -10z m-154 -87 c-9 -9 -13 -9 -22 3 -6 8 -22 14 -35 14 -18
0 -20 -3 -11 -12 7 -7 12 -18 12 -25 0 -8 -7 -6 -20 7 -24 24 -44 17 -37 -12
4 -12 1 -18 -6 -15 -7 2 -13 13 -15 24 -4 25 65 59 102 49 18 -4 26 -2 27 6 0
7 4 4 8 -7 4 -11 3 -25 -3 -32z m-493 -90 c-7 -2 -19 -2 -25 0 -7 3 -2 5 12 5
14 0 19 -2 13 -5z m-249 -54 c16 -15 1 -19 -37 -8 -52 14 -61 34 -11 25 21 -4
43 -12 48 -17z m771 11 c-4 -6 -1 -17 5 -25 7 -9 8 -15 2 -15 -5 0 -15 7 -22
15 -14 17 -32 11 -24 -8 2 -7 14 -18 25 -25 17 -11 25 -11 44 2 31 20 41 4 19
-29 -18 -27 -12 -47 8 -27 7 7 18 12 26 12 9 0 6 -7 -9 -20 l-24 -19 45 -1
c25 -1 39 -4 33 -7 -7 -2 -13 -10 -13 -17 0 -6 -15 -20 -32 -31 -25 -14 -30
-15 -20 -3 16 20 -7 41 -34 32 -17 -6 -17 -5 1 9 19 15 19 16 2 17 -15 0 -17
5 -12 30 6 30 6 31 -21 24 -18 -5 -25 -3 -20 4 4 6 -5 19 -19 28 -29 19 -32
39 -7 53 23 14 55 14 47 1z m42 -5 c9 -24 -1 -27 -15 -5 -8 13 -8 20 -2 20 6
0 13 -7 17 -15z m-1247 -5 c0 -5 -2 -10 -4 -10 -3 0 -8 5 -11 10 -3 6 -1 10 4
10 6 0 11 -4 11 -10z m508 -7 c-10 -2 -26 -2 -35 0 -10 3 -2 5 17 5 19 0 27
-2 18 -5z m-551 -50 c-3 -10 -5 -4 -5 12 0 17 2 24 5 18 2 -7 2 -21 0 -30z
m-17 -23 c0 -16 -2 -30 -4 -30 -2 0 -6 14 -8 30 -3 17 -1 30 4 30 4 0 8 -13 8
-30z m150 -25 c-7 -8 -16 -15 -21 -15 -5 0 -9 7 -9 15 0 9 9 15 21 15 18 0 19
-2 9 -15z m924 -260 c-4 -8 -10 -15 -15 -15 -4 0 -6 7 -3 15 4 8 10 15 15 15
4 0 6 -7 3 -15z m37 -33 c-7 -2 -18 1 -23 6 -8 8 -4 9 13 5 13 -4 18 -8 10
-11z m27 -45 c17 -20 -2 -39 -34 -33 -16 2 -32 5 -36 5 -18 2 -6 30 15 34 40
8 44 7 55 -6z m-370 -20 c21 -24 25 -66 8 -73 -9 -3 -16 -14 -17 -23 0 -12 -3
-11 -16 7 -8 12 -24 22 -34 22 -11 0 -19 5 -19 10 0 6 8 10 18 8 12 -2 17 4
17 22 0 36 23 51 43 27z m-258 -53 c0 -9 -5 -14 -12 -12 -18 6 -21 28 -4 28 9
0 16 -7 16 -16z m133 -59 c-3 -8 -9 -15 -14 -15 -10 0 -12 24 -3 33 11 11 24
-3 17 -18z m47 15 c0 -5 -2 -10 -4 -10 -3 0 -8 5 -11 10 -3 6 -1 10 4 10 6 0
11 -4 11 -10z m35 -10 c3 -6 -1 -7 -9 -4 -18 7 -21 14 -7 14 6 0 13 -4 16 -10z
m-255 -31 c0 -5 -7 -9 -15 -9 -15 0 -20 12 -9 23 8 8 24 -1 24 -14z m267 -34
c0 -8 -4 -15 -9 -15 -10 0 -11 14 -1 23 9 10 10 9 10 -8z m-317 -45 c0 -21
-15 -27 -25 -10 -7 12 2 30 16 30 5 0 9 -9 9 -20z m1380 -90 c0 -5 -5 -10 -11
-10 -5 0 -7 5 -4 10 3 6 8 10 11 10 2 0 4 -4 4 -10z m-1363 -22 c-3 -8 -6 -5
-6 6 -1 11 2 17 5 13 3 -3 4 -12 1 -19z m1730 -400 c-3 -8 -6 -5 -6 6 -1 11 2
17 5 13 3 -3 4 -12 1 -19z m-367 -197 c0 -6 -4 -13 -10 -16 -5 -3 -10 1 -10 9
0 9 5 16 10 16 6 0 10 -4 10 -9z m-8 -53 c-18 -18 -14 -27 8 -21 12 3 20 0 20
-6 0 -7 -4 -9 -10 -6 -5 3 -10 1 -10 -5 0 -7 -8 -9 -22 -4 -33 10 -34 12 -7
37 24 23 43 27 21 5z m-1083 -360 c9 -24 14 -29 23 -20 17 17 28 15 28 -4 0
-10 -6 -14 -15 -10 -22 8 -65 -40 -65 -72 1 -25 2 -25 14 -9 7 9 21 17 31 17
14 0 15 3 5 15 -7 9 -8 15 -2 15 5 0 12 -6 15 -14 7 -18 81 -40 85 -26 2 6 8
8 13 4 5 -3 9 0 9 5 0 6 7 11 15 11 8 0 15 6 16 13 0 9 2 9 6 -1 3 -9 13 -4
30 15 20 22 24 24 19 8 -3 -11 -1 -27 4 -35 9 -13 10 -13 11 0 1 8 1 20 0 27
-1 8 7 9 34 0 19 -5 35 -15 35 -21 0 -6 10 -17 21 -25 18 -11 23 -11 30 1 5 7
7 19 4 26 -3 9 0 10 15 2 19 -10 19 -12 4 -35 -8 -13 -14 -34 -13 -47 2 -13
-1 -30 -6 -38 -5 -8 -10 -18 -10 -22 0 -5 -4 -7 -10 -5 -5 1 -9 8 -9 15 2 10
-1 10 -12 1 -8 -7 -11 -21 -8 -34 3 -13 0 -26 -7 -30 -8 -5 -10 -4 -5 3 5 8 2
10 -8 6 -20 -8 -21 -24 -1 -24 9 0 4 -11 -15 -30 -29 -30 -34 -41 -31 -67 1
-7 -3 -13 -8 -13 -5 0 -8 -9 -6 -19 3 -14 -1 -19 -14 -16 -12 2 -18 -2 -17
-13 0 -9 -5 -16 -11 -14 -7 1 -13 -7 -13 -17 0 -11 -4 -23 -10 -26 -5 -3 -10
-19 -10 -34 0 -16 -7 -34 -15 -41 -8 -7 -12 -17 -9 -22 3 -5 -2 -18 -12 -29
-9 -10 -13 -19 -8 -19 6 0 10 -9 11 -20 1 -11 -2 -20 -8 -20 -5 0 -9 7 -9 16
0 10 -7 14 -17 12 -10 -2 -17 -10 -15 -16 1 -7 -5 -12 -13 -12 -8 0 -15 -6
-15 -12 0 -13 -50 -51 -83 -64 -11 -4 -16 -14 -13 -29 3 -16 0 -22 -10 -21
-28 4 -41 42 -53 151 -15 151 -14 273 5 380 8 50 16 96 16 103 1 6 6 12 11 12
5 0 8 21 5 50 -3 31 -1 47 5 43 6 -4 8 4 5 20 -3 15 -2 24 2 22 4 -3 11 11 14
30 9 44 30 45 45 3z m325 -11 c7 -6 6 -7 -4 -4 -8 2 -16 12 -17 23 -2 13 -1
15 4 4 3 -8 11 -19 17 -23z m1 -27 c3 -5 1 -10 -4 -10 -6 0 -11 5 -11 10 0 6
2 10 4 10 3 0 8 -4 11 -10z m295 -77 c0 -15 2 -16 10 -3 15 23 12 6 -5 -26 -8
-16 -15 -23 -15 -15 0 11 -3 11 -15 1 -9 -7 -15 -8 -15 -2 0 5 8 13 17 16 12
5 14 9 5 18 -16 16 -15 28 3 28 8 0 15 -8 15 -17z m125 -3 c-3 -5 -12 -10 -18
-10 -7 0 -6 4 3 10 19 12 23 12 15 0z m-77 -28 c-9 -2 -15 -9 -12 -16 3 -8 -2
-16 -10 -19 -11 -4 -13 -1 -9 11 10 28 25 42 37 35 7 -5 5 -9 -6 -11z m21 -23
c-19 -11 -24 -3 -8 14 8 9 16 11 18 5 2 -6 -3 -14 -10 -19z m-440 -518 c6 -10
7 -21 4 -25 -3 -3 -1 -6 6 -6 7 0 9 -4 6 -10 -3 -5 -1 -10 5 -10 6 0 8 -5 4
-12 -5 -8 -2 -9 9 -5 18 7 19 -13 2 -25 -6 -5 -3 -8 6 -8 9 0 20 -7 23 -16 3
-8 2 -12 -4 -9 -6 3 -10 -1 -10 -9 0 -9 7 -16 15 -16 17 0 36 -39 27 -55 -10
-16 -9 -45 1 -45 5 0 7 -6 5 -12 -3 -7 -13 -13 -24 -13 -11 0 -18 -6 -16 -13
2 -10 -5 -12 -28 -7 -18 4 -30 3 -30 -4 0 -13 -126 -9 -140 5 -12 12 29 13 48
0 21 -13 27 2 15 34 -6 17 -7 30 -2 30 4 0 5 10 0 22 -9 24 -3 68 10 68 5 0 6
6 3 14 -4 11 0 13 15 9 12 -3 21 -1 21 6 0 6 -4 11 -10 11 -5 0 -10 5 -10 11
0 5 5 7 10 4 6 -3 10 -1 10 4 0 6 -5 11 -11 11 -8 0 -8 4 0 14 8 10 9 16 1 19
-6 3 -5 4 2 3 7 -2 13 -17 13 -34 0 -19 5 -32 12 -32 18 0 16 41 -2 66 -8 12
-11 24 -7 28 3 4 0 11 -8 16 -13 8 -12 10 2 10 10 0 22 -8 27 -19z m-116 -327
c8 -8 -3 -34 -14 -34 -5 0 -8 5 -6 12 1 6 -7 13 -18 15 -11 1 -14 0 -7 -3 19
-9 14 -24 -5 -18 -17 5 -17 5 -1 -8 16 -14 16 -15 -2 -30 -10 -9 -21 -14 -24
-11 -3 4 -6 -1 -6 -11 0 -9 4 -15 9 -12 5 4 4 -5 -2 -18 -14 -30 -30 -24 -57
20 -28 49 -26 58 13 51 28 -4 35 -1 49 24 16 27 54 40 71 23z"/>
<path d="M3465 4100 c3 -5 8 -10 11 -10 2 0 4 5 4 10 0 6 -5 10 -11 10 -5 0
-7 -4 -4 -10z"/>
<path d="M2650 3935 c0 -8 4 -15 8 -15 5 0 9 7 9 15 0 8 -4 15 -9 15 -4 0 -8
-7 -8 -15z"/>
<path d="M3435 3440 c3 -5 10 -10 16 -10 5 0 9 5 9 10 0 6 -7 10 -16 10 -8 0
-12 -4 -9 -10z"/>
<path d="M2840 3105 c0 -8 4 -15 10 -15 5 0 7 7 4 15 -4 8 -8 15 -10 15 -2 0
-4 -7 -4 -15z"/>
<path d="M3121 1662 c-7 -13 -6 -19 2 -19 7 0 13 9 13 19 0 10 -1 18 -3 18 -1
0 -7 -8 -12 -18z"/>
<path d="M3070 1011 c0 -6 4 -13 10 -16 6 -3 7 1 4 9 -7 18 -14 21 -14 7z"/>
<path d="M3040 4420 c20 -13 50 -13 50 0 0 6 -15 10 -32 10 -25 0 -29 -3 -18
-10z"/>
<path d="M4208 3643 c7 -3 16 -2 19 1 4 3 -2 6 -13 5 -11 0 -14 -3 -6 -6z"/>
<path d="M2317 3275 c3 -23 1 -45 -4 -48 -9 -5 -50 10 -105 39 -27 14 -138 20
-138 7 0 -15 38 -66 65 -87 18 -15 27 -32 29 -59 4 -47 10 -53 35 -35 12 8 18
18 15 21 -4 4 15 16 42 27 27 12 59 30 70 41 20 19 23 19 38 4 9 -9 21 -13 27
-9 8 4 7 9 -2 15 -8 4 -14 14 -14 21 -1 26 -28 85 -45 96 -15 9 -16 6 -13 -33z"/>
<path d="M2474 3180 c0 -11 5 -19 11 -17 5 2 10 10 10 17 0 7 -5 15 -10 17 -6
2 -11 -6 -11 -17z"/>
<path d="M4050 3118 c0 -5 5 -8 11 -8 6 0 8 -9 4 -21 -6 -19 -5 -20 8 -8 8 8
13 17 10 22 -2 4 1 7 6 7 6 0 11 4 11 9 0 5 -11 8 -25 7 -14 0 -25 -4 -25 -8z"/>
<path d="M1120 2875 c-30 -7 -55 -13 -55 -13 0 0 -36 -3 -80 -7 -70 -6 -135
-28 -135 -45 0 -3 -11 -17 -25 -32 -21 -23 -25 -35 -22 -78 1 -27 0 -50 -3
-50 -3 0 -5 -13 -5 -29 1 -32 29 -71 52 -71 7 0 13 -4 13 -10 0 -18 39 -10 50
10 6 11 16 20 22 20 6 0 26 12 45 26 27 21 39 24 66 18 18 -4 38 -7 46 -5 8 1
17 -3 21 -9 12 -19 94 -15 123 6 42 31 74 118 69 190 -3 33 -53 81 -92 87 -19
3 -60 -1 -90 -8z"/>
<path d="M1587 2370 c-21 -25 -22 -54 -1 -86 13 -18 22 -23 38 -18 11 4 30 8
41 9 16 2 19 8 17 35 -2 33 -19 64 -37 67 -5 1 -17 4 -25 7 -9 4 -23 -2 -33
-14z"/>
<path d="M2466 2364 c-3 -9 -4 -19 -1 -24 3 -4 -3 -11 -12 -14 -15 -6 -15 -8
-3 -16 8 -6 10 -10 4 -10 -15 0 -13 -58 3 -64 7 -3 13 -10 13 -17 0 -6 -7 -9
-14 -6 -11 4 -13 1 -9 -10 4 -11 2 -14 -5 -9 -8 4 -10 2 -6 -8 5 -13 10 -12
37 3 18 10 32 24 32 32 1 8 7 25 14 38 7 13 11 34 8 47 -2 14 0 27 4 30 11 6
-8 44 -22 44 -6 0 -7 -5 -3 -11 5 -8 1 -8 -14 0 -16 8 -21 7 -26 -5z"/>
<path d="M878 2293 c-16 -8 -28 -21 -28 -29 0 -8 -10 -25 -21 -37 -33 -34 -48
-77 -38 -105 5 -13 9 -36 9 -52 0 -16 4 -31 9 -34 5 -3 9 -16 9 -28 0 -59 45
-189 84 -240 22 -29 48 -70 59 -91 11 -21 26 -40 34 -44 8 -3 15 -12 15 -19 0
-8 8 -17 18 -21 9 -3 25 -15 36 -25 22 -23 35 -16 15 9 -12 15 -12 16 2 11 13
-5 16 -2 12 13 -4 13 1 21 17 27 12 4 21 11 21 15 -1 4 10 30 24 57 30 59 39
169 23 294 -10 83 -11 132 -5 201 4 40 -11 95 -26 95 -4 0 -6 4 -2 9 8 14 -32
5 -74 -17 -59 -30 -88 -35 -100 -15 -6 10 -11 14 -11 10 0 -4 -10 1 -22 13
-25 23 -24 23 -60 3z"/>
<path d="M2279 2157 c-57 -34 -175 -171 -211 -245 -27 -54 -33 -79 -33 -129 0
-81 16 -98 88 -98 59 1 109 25 287 139 58 36 139 83 180 103 41 20 111 53 154
74 86 42 119 50 91 23 -9 -9 -14 -21 -13 -26 4 -10 18 -12 18 -3 0 3 7 19 16
36 8 17 13 33 10 36 -3 3 10 26 29 51 19 25 35 49 35 53 0 5 -19 0 -42 -10
-24 -11 -65 -28 -93 -39 -43 -16 -50 -23 -48 -45 1 -24 -11 -32 -162 -106 -90
-44 -207 -109 -261 -145 -126 -85 -196 -99 -222 -42 -32 71 55 226 196 349 30
25 42 48 25 46 -5 0 -24 -11 -44 -22z m-201 -386 c-15 -5 -21 7 -13 26 7 17 8
17 15 -2 4 -11 3 -22 -2 -24z"/>
<path d="M1676 2145 c4 -8 8 -15 10 -15 2 0 4 7 4 15 0 8 -4 15 -10 15 -5 0
-7 -7 -4 -15z"/>
<path d="M1622 2142 c-25 -4 -44 -33 -48 -74 -3 -24 0 -28 24 -29 23 0 24 -2
8 -8 -17 -6 -17 -8 -4 -14 23 -8 62 37 55 63 -4 15 -2 20 7 17 7 -3 13 0 13 6
0 21 -31 43 -55 39z"/>
<path d="M1688 1558 c-46 -49 -86 -146 -60 -149 9 -1 31 -6 59 -14 16 -5 25 0
39 22 10 15 33 52 52 82 l35 54 -24 18 c-36 28 -67 23 -101 -13z m62 -23 c0
-27 -54 -95 -76 -95 -27 0 -12 53 29 98 27 29 47 28 47 -3z"/>
<path d="M1828 1523 c-19 -24 -88 -137 -88 -145 0 -5 8 -8 18 -8 13 0 28 18
46 56 25 50 49 74 62 61 3 -2 -6 -22 -21 -42 -43 -65 -25 -132 30 -107 30 14
50 48 33 58 -6 4 -14 2 -16 -4 -7 -22 -34 -13 -30 10 2 18 10 22 43 22 38 1
41 3 49 39 10 40 -2 61 -29 50 -7 -2 -29 2 -48 11 -32 13 -37 13 -49 -1z m102
-53 c0 -12 -28 -25 -36 -17 -9 9 6 27 22 27 8 0 14 -5 14 -10z"/>
<path d="M2135 1521 c-3 -5 -1 -12 4 -15 5 -3 11 1 15 9 6 16 -9 21 -19 6z"/>
<path d="M2029 1503 c-21 -3 -34 -18 -57 -61 -41 -76 -54 -112 -42 -112 5 0
24 30 42 66 30 61 51 84 64 71 3 -3 -6 -28 -20 -56 -42 -82 -29 -83 14 -1 39
72 48 102 33 99 -5 -1 -20 -4 -34 -6z"/>
<path d="M2088 1473 c-18 -20 -42 -67 -52 -101 -7 -21 -6 -21 18 -11 28 13 37
43 10 32 -14 -5 -14 -2 1 28 10 19 24 42 33 52 8 9 13 17 10 17 -3 0 -12 -8
-20 -17z"/>
</g>
</svg>
