<svg viewBox="0 0 301 238" fill="none" xmlns="http://www.w3.org/2000/svg">
<path fill-rule="evenodd" clip-rule="evenodd" d="M198.818 34.9999C198.176 29.3137 198.977 24.418 200.818 19C203.377 11.4685 205.32 7.57859 212.149 3.49991C218.009 9.46522e-05 228.818 0 228.818 0C268.818 0 268.818 60 228.818 60C228.818 60 221.818 60 218.009 58.9999C206.402 55.9524 200.164 46.9247 198.818 34.9999ZM162.948 39.9197C164.642 38.2164 166.893 37.1799 169.288 36.9997C170.725 36.8943 172.168 37.1007 173.518 37.6047C174.867 38.1087 176.092 38.8984 177.108 39.9197L214.168 76.9997H260.028C262.681 76.9997 265.224 78.0533 267.099 79.9286C268.975 81.804 270.028 84.3475 270.028 86.9997C270.028 89.6519 268.975 92.1954 267.099 94.0708C265.224 95.9461 262.681 96.9997 260.028 96.9997H210.028C208.714 97.002 207.413 96.7454 206.198 96.2443C204.983 95.7433 203.879 95.0077 202.948 94.0797L180.028 71.1397L146.108 105.04L176.288 129.18C178.187 130.691 179.471 132.841 179.902 135.229C180.332 137.617 179.88 140.081 178.628 142.16L148.628 192.16C147.26 194.441 145.041 196.084 142.461 196.73C141.183 197.049 139.855 197.114 138.552 196.92C137.25 196.726 135.998 196.277 134.868 195.6C133.739 194.922 132.754 194.029 131.97 192.97C131.186 191.912 130.618 190.71 130.299 189.432C129.979 188.154 129.915 186.826 130.108 185.524C130.302 184.221 130.751 182.969 131.428 181.84L156.948 139.34L113.788 104.82C112.686 103.942 111.781 102.842 111.134 101.59C110.486 100.339 110.11 98.9647 110.031 97.5578C109.952 96.151 110.171 94.7433 110.673 93.427C111.176 92.1107 111.951 90.9155 112.948 89.9197L162.948 39.9197ZM16.8748 135.28C27.9395 123.841 43.0954 117.265 59.0083 117H59.0284C74.9413 116.737 90.3069 122.807 101.745 133.873C113.183 144.94 119.756 160.097 120.018 176.01C120.281 191.923 114.211 207.288 103.145 218.726C92.0783 230.164 76.9213 236.737 61.0084 237C45.0954 237.265 29.7288 231.198 18.289 220.133C6.84933 209.069 0.27356 193.913 0.00834341 178C-0.256873 162.087 5.81018 146.72 16.8748 135.28ZM196.875 135.28C207.939 123.841 223.095 117.265 239.008 117H239.028C254.941 116.737 270.307 122.807 281.745 133.873C293.183 144.94 299.756 160.097 300.018 176.01C300.281 191.923 294.211 207.288 283.145 218.726C272.078 230.164 256.921 236.737 241.008 237C225.095 237.265 209.729 231.198 198.289 220.133C186.849 209.069 180.274 193.913 180.008 178C179.743 162.087 185.81 146.72 196.875 135.28ZM256.486 140.191C251.59 138.109 246.328 137.024 241.008 137H241.028C230.556 136.947 220.481 141.002 212.966 148.296C205.451 155.59 201.097 165.54 200.837 176.009C200.578 186.478 204.435 196.631 211.58 204.288C218.724 211.945 228.586 216.495 239.048 216.96C244.363 217.196 249.672 216.37 254.664 214.53C259.655 212.69 264.23 209.872 268.119 206.242C272.009 202.613 275.135 198.243 277.315 193.39C279.495 188.537 280.685 183.298 280.816 177.98C280.946 172.661 280.014 167.37 278.074 162.416C276.135 157.462 273.226 152.945 269.519 149.129C265.812 145.312 261.382 142.274 256.486 140.191ZM76.4859 140.191C71.5903 138.109 66.3284 137.024 61.0083 137H61.0283C50.5561 136.947 40.4807 141.002 32.966 148.296C25.4513 155.59 21.0967 165.54 20.8374 176.009C20.5782 186.478 24.435 196.631 31.5795 204.288C38.724 211.945 48.5863 216.495 59.0483 216.96C64.3632 217.196 69.672 216.37 74.6637 214.53C79.6555 212.69 84.2299 209.872 88.1194 206.242C92.0088 202.613 95.1351 198.243 97.3151 193.39C99.4952 188.537 100.685 183.298 100.816 177.98C100.946 172.661 100.014 167.37 98.0744 162.416C96.1347 157.462 93.2263 152.945 89.5194 149.129C85.8124 145.312 81.3815 142.274 76.4859 140.191Z"/>
</svg>
