<svg width="250" height="100" viewBox="0 0 250 100" fill="none" xmlns="http://www.w3.org/2000/svg">
<path d="M4.17783 45.5196V1.24711H8.54273V41.6536H34.1086V45.5196H4.17783Z" fill="white"/>
<path d="M39.2251 32.1132V13.0323H43.4653V31.3649C43.4653 35.0647 44.0889 37.8291 45.336 39.6582C46.6247 41.4873 48.5161 42.4019 51.0104 42.4019C52.6732 42.4019 54.2736 42.0485 55.8117 41.3418C57.3914 40.5935 58.784 39.5543 59.9896 38.224C61.1951 36.8522 62.1097 35.2725 62.7332 33.485V13.0323H66.9734V40.4065C66.9734 40.9885 67.0981 41.425 67.3475 41.716C67.597 41.9654 67.9711 42.1109 68.47 42.1524V45.5196C67.9711 45.5612 67.5762 45.582 67.2852 45.582C66.9942 45.6236 66.724 45.6444 66.4746 45.6444C65.6432 45.5612 64.9157 45.2287 64.2921 44.6467C63.7101 44.0647 63.3984 43.358 63.3568 42.5266L63.2321 38.1617C61.8187 40.6559 59.8857 42.6097 57.433 44.0231C55.0219 45.4365 52.403 46.1432 49.5762 46.1432C46.1674 46.1432 43.59 44.9584 41.8441 42.5889C40.0981 40.2194 39.2251 36.7275 39.2251 32.1132Z" fill="white"/>
<path d="M90.653 46.1432C88.2835 46.1432 86.101 45.7067 84.1056 44.8337C82.1518 43.9192 80.4266 42.6721 78.9301 41.0924C77.4751 39.5127 76.332 37.7044 75.5005 35.6674C74.7107 33.6305 74.3158 31.4688 74.3158 29.1825C74.3158 26.1062 75.0017 23.3002 76.3735 20.7644C77.7454 18.2286 79.6576 16.2125 82.1103 14.7159C84.5629 13.2194 87.3897 12.4711 90.5906 12.4711C93.6253 12.4711 96.3066 13.1778 98.6345 14.5912C100.962 15.9631 102.688 17.8337 103.81 20.2032L99.6946 21.5127C98.78 19.8499 97.4913 18.5612 95.8285 17.6467C94.2073 16.6905 92.3989 16.2125 90.4036 16.2125C88.2419 16.2125 86.2673 16.7737 84.4798 17.8961C82.6922 19.0185 81.2581 20.5566 80.1772 22.5104C79.138 24.4642 78.6183 26.6882 78.6183 29.1825C78.6183 31.6351 79.1588 33.8591 80.2396 35.8545C81.3204 37.8499 82.7546 39.4504 84.5421 40.6559C86.3297 41.8199 88.3042 42.4019 90.4659 42.4019C91.8793 42.4019 93.2303 42.1524 94.519 41.6536C95.8493 41.1547 96.9925 40.4896 97.9486 39.6582C98.9463 38.7852 99.6114 37.8499 99.944 36.8522L104.122 38.0993C103.54 39.6374 102.563 41.03 101.191 42.2772C99.8608 43.4827 98.2812 44.4388 96.4521 45.1455C94.6645 45.8106 92.7315 46.1432 90.653 46.1432Z" fill="white"/>
<path d="M110.783 45.5196V13.0323H115.023V45.5196H110.783ZM110.783 6.23557V0H115.023V6.23557H110.783Z" fill="white"/>
<path d="M138.393 46.1432C136.065 46.1432 133.903 45.7067 131.908 44.8337C129.912 43.9192 128.187 42.6929 126.732 41.1548C125.277 39.5751 124.134 37.7668 123.303 35.7298C122.513 33.6929 122.118 31.5104 122.118 29.1825C122.118 26.1478 122.804 23.3626 124.175 20.8268C125.589 18.291 127.522 16.2748 129.975 14.7783C132.427 13.2402 135.212 12.4711 138.33 12.4711C141.531 12.4711 144.316 13.2402 146.686 14.7783C149.097 16.3164 150.988 18.3534 152.36 20.8892C153.732 23.3834 154.418 26.127 154.418 29.1201C154.418 29.4527 154.418 29.7852 154.418 30.1178C154.418 30.4088 154.397 30.6374 154.356 30.8037H126.545C126.753 33.1317 127.397 35.2102 128.478 37.0393C129.6 38.8268 131.035 40.261 132.781 41.3418C134.568 42.3811 136.501 42.9007 138.58 42.9007C140.7 42.9007 142.695 42.3603 144.566 41.2795C146.478 40.1986 147.808 38.7852 148.557 37.0393L152.236 38.037C151.57 39.5751 150.552 40.9677 149.18 42.2148C147.808 43.4619 146.187 44.4388 144.316 45.1455C142.487 45.8106 140.513 46.1432 138.393 46.1432ZM126.42 27.7483H150.427C150.261 25.3788 149.617 23.3002 148.494 21.5127C147.413 19.7252 145.979 18.3326 144.192 17.3349C142.446 16.2956 140.513 15.776 138.393 15.776C136.273 15.776 134.339 16.2956 132.594 17.3349C130.848 18.3326 129.413 19.746 128.291 21.5751C127.21 23.3626 126.587 25.4203 126.42 27.7483Z" fill="white"/>
<path d="M29.6189 66.4712C29.328 66.1802 28.7875 65.7852 27.9977 65.2864C27.2494 64.7876 26.3141 64.3095 25.1917 63.8522C24.1109 63.3949 22.9261 63 21.6374 62.6675C20.3487 62.2933 19.0393 62.1063 17.709 62.1063C15.3811 62.1063 13.6143 62.5427 12.4088 63.4157C11.2448 64.2887 10.6628 65.515 10.6628 67.0947C10.6628 68.3003 11.037 69.2564 11.7852 69.9631C12.5335 70.6698 13.6559 71.2725 15.1524 71.7714C16.649 72.2702 18.5196 72.8107 20.7644 73.3926C23.6744 74.0993 26.1894 74.9723 28.3095 76.0116C30.4711 77.0093 32.1132 78.3395 33.2356 80.0023C34.3995 81.6236 34.9815 83.7853 34.9815 86.4873C34.9815 88.8568 34.545 90.8938 33.6721 92.5982C32.7991 94.261 31.5935 95.612 30.0554 96.6513C28.5173 97.6906 26.7714 98.4596 24.8176 98.9585C22.8638 99.4157 20.7852 99.6444 18.582 99.6444C16.3788 99.6444 14.1755 99.4157 11.9723 98.9585C9.76906 98.5012 7.64896 97.8568 5.61201 97.0254C3.57506 96.1525 1.70439 95.1132 0 93.9077L3.8037 86.4873C4.17783 86.8615 4.84296 87.3603 5.79908 87.9839C6.7552 88.5659 7.91917 89.1686 9.291 89.7922C10.6628 90.3742 12.1594 90.873 13.7806 91.2887C15.4019 91.7044 17.0439 91.9123 18.7067 91.9123C21.0347 91.9123 22.8014 91.5174 24.0069 90.7275C25.2125 89.9377 25.8153 88.8153 25.8153 87.3603C25.8153 86.0301 25.3372 84.9908 24.3811 84.2425C23.425 83.4943 22.0947 82.8499 20.3903 82.3095C18.6859 81.7275 16.6698 81.104 14.3418 80.4388C11.5566 79.649 9.22864 78.776 7.35797 77.8199C5.4873 76.8222 4.09469 75.5751 3.18014 74.0785C2.26559 72.582 1.80831 70.7113 1.80831 68.4665C1.80831 65.4319 2.51501 62.8961 3.92841 60.8591C5.38337 58.7806 7.33718 57.2217 9.78984 56.1825C12.2425 55.1016 14.9654 54.5612 17.9584 54.5612C20.037 54.5612 21.9908 54.7899 23.8199 55.2471C25.6905 55.7044 27.4365 56.3072 29.0577 57.0554C30.679 57.8037 32.134 58.6143 33.4226 59.4873L29.6189 66.4712Z" fill="white"/>
<path d="M48.4304 99.1455L36.3957 66.4712H45.0632L53.2941 91.5381L61.5874 66.4712H69.5066L57.5343 99.1455H48.4304Z" fill="white"/>
<path d="M87.978 99.7691C85.3591 99.7691 82.9896 99.3326 80.8695 98.4596C78.7494 97.5451 76.9411 96.3187 75.4445 94.7806C73.948 93.201 72.784 91.4134 71.9526 89.4181C71.1628 87.3811 70.7679 85.2402 70.7679 82.9954C70.7679 79.8776 71.4538 77.03 72.8256 74.4527C74.239 71.8753 76.2344 69.8176 78.8117 68.2795C81.4307 66.6998 84.5069 65.91 88.0404 65.91C91.6154 65.91 94.6709 66.6998 97.2067 68.2795C99.7425 69.8176 101.675 71.8753 103.006 74.4527C104.378 76.9885 105.063 79.7321 105.063 82.6836C105.063 83.1825 105.043 83.7021 105.001 84.2425C104.96 84.7414 104.918 85.1571 104.876 85.4896H79.6224C79.7886 87.1525 80.2667 88.6074 81.0565 89.8545C81.8879 91.1016 82.9272 92.0578 84.1743 92.7229C85.463 93.3465 86.8348 93.6582 88.2898 93.6582C89.9526 93.6582 91.5115 93.2633 92.9665 92.4735C94.463 91.6421 95.4815 90.5612 96.0219 89.231L103.193 91.2264C102.403 92.8892 101.26 94.3649 99.7632 95.6536C98.3083 96.9423 96.5831 97.9608 94.5877 98.709C92.5923 99.4157 90.3891 99.7691 87.978 99.7691ZM79.4353 80.1894H96.5208C96.3545 78.5266 95.8764 77.0924 95.0866 75.8869C94.3383 74.6398 93.3406 73.6836 92.0935 73.0185C90.8464 72.3118 89.4538 71.9585 87.9157 71.9585C86.4191 71.9585 85.0473 72.3118 83.8002 73.0185C82.5946 73.6836 81.597 74.6398 80.8071 75.8869C80.0589 77.0924 79.6016 78.5266 79.4353 80.1894ZM82.6154 53.6259L87.9157 57.5543L93.2159 53.6259L97.5184 55.6213L90.9087 61.9192H84.8602L78.2505 55.6213L82.6154 53.6259Z" fill="white"/>
<path d="M125.369 99.7691C122.708 99.7691 120.318 99.3326 118.198 98.4596C116.078 97.5451 114.269 96.298 112.773 94.7183C111.276 93.097 110.112 91.2679 109.281 89.231C108.491 87.194 108.096 85.0532 108.096 82.8083C108.096 79.7321 108.782 76.9261 110.154 74.3903C111.567 71.813 113.563 69.7552 116.14 68.2171C118.717 66.679 121.773 65.91 125.306 65.91C128.84 65.91 131.874 66.679 134.41 68.2171C136.946 69.7552 138.837 71.7714 140.084 74.2656L131.916 76.7598C131.209 75.5543 130.274 74.6398 129.11 74.0162C127.946 73.3511 126.657 73.0185 125.244 73.0185C123.664 73.0185 122.209 73.4342 120.879 74.2656C119.59 75.0555 118.572 76.1986 117.824 77.6952C117.075 79.1501 116.701 80.8545 116.701 82.8083C116.701 84.7206 117.075 86.425 117.824 87.9215C118.613 89.3765 119.653 90.5404 120.941 91.4134C122.23 92.2448 123.664 92.6605 125.244 92.6605C126.242 92.6605 127.177 92.4943 128.05 92.1617C128.964 91.8291 129.775 91.3719 130.482 90.7899C131.188 90.2079 131.708 89.5428 132.041 88.7945L140.209 91.2887C139.461 92.91 138.359 94.3649 136.904 95.6536C135.491 96.9423 133.807 97.9608 131.854 98.709C129.941 99.4157 127.78 99.7691 125.369 99.7691Z" fill="white"/>
<path d="M160.199 99.7691C157.58 99.7691 155.21 99.3326 153.09 98.4596C150.97 97.5451 149.162 96.3187 147.665 94.7806C146.169 93.201 145.005 91.4134 144.173 89.4181C143.383 87.3811 142.988 85.2402 142.988 82.9954C142.988 79.8776 143.674 77.03 145.046 74.4527C146.46 71.8753 148.455 69.8176 151.032 68.2795C153.651 66.6998 156.727 65.91 160.261 65.91C163.836 65.91 166.891 66.6998 169.427 68.2795C171.963 69.8176 173.896 71.8753 175.226 74.4527C176.598 76.9885 177.284 79.7321 177.284 82.6836C177.284 83.1825 177.263 83.7021 177.222 84.2425C177.18 84.7414 177.139 85.1571 177.097 85.4896H151.843C152.009 87.1525 152.487 88.6074 153.277 89.8545C154.109 91.1016 155.148 92.0578 156.395 92.7229C157.684 93.3465 159.055 93.6582 160.51 93.6582C162.173 93.6582 163.732 93.2633 165.187 92.4735C166.684 91.6421 167.702 90.5612 168.242 89.231L175.413 91.2264C174.624 92.8892 173.48 94.3649 171.984 95.6536C170.529 96.9423 168.804 97.9608 166.808 98.709C164.813 99.4157 162.61 99.7691 160.199 99.7691ZM151.656 80.1894H168.741C168.575 78.5266 168.097 77.0924 167.307 75.8869C166.559 74.6398 165.561 73.6836 164.314 73.0185C163.067 72.3118 161.674 71.9585 160.136 71.9585C158.64 71.9585 157.268 72.3118 156.021 73.0185C154.815 73.6836 153.818 74.6398 153.028 75.8869C152.279 77.0924 151.822 78.5266 151.656 80.1894Z" fill="white"/>
<path d="M212.742 99.1455H204.386V80.813C204.386 78.194 203.929 76.2818 203.014 75.0762C202.099 73.8707 200.832 73.2679 199.21 73.2679C198.088 73.2679 196.945 73.5589 195.781 74.1409C194.658 74.7229 193.64 75.5335 192.725 76.5728C191.811 77.5705 191.146 78.7344 190.73 80.0647V99.1455H182.374V66.4712H189.919V72.5197C190.751 71.1063 191.811 69.9215 193.099 68.9654C194.388 67.9677 195.864 67.2194 197.527 66.7206C199.231 66.1802 201.019 65.91 202.889 65.91C204.926 65.91 206.589 66.2841 207.878 67.0324C209.208 67.7391 210.206 68.716 210.871 69.9631C211.578 71.1686 212.056 72.5404 212.305 74.0785C212.596 75.6167 212.742 77.1755 212.742 78.7552V99.1455Z" fill="white"/>
<path d="M217.762 89.4804C217.762 87.3603 218.344 85.5104 219.508 83.9307C220.714 82.3095 222.376 81.0624 224.497 80.1894C226.617 79.3164 229.049 78.8799 231.792 78.8799C233.164 78.8799 234.557 78.9839 235.97 79.1917C237.383 79.3996 238.61 79.7321 239.649 80.1894V78.4434C239.649 76.3649 239.025 74.7645 237.778 73.6421C236.573 72.5197 234.764 71.9585 232.353 71.9585C230.566 71.9585 228.861 72.2702 227.24 72.8938C225.619 73.5173 223.915 74.4319 222.127 75.6374L219.446 70.1501C221.607 68.7367 223.811 67.6767 226.055 66.97C228.342 66.2633 230.732 65.91 233.226 65.91C237.882 65.91 241.499 67.0739 244.076 69.4019C246.695 71.7298 248.005 75.0555 248.005 79.3788V89.7922C248.005 90.6652 248.15 91.2887 248.441 91.6629C248.774 92.037 249.293 92.2656 250 92.3488V99.1455C249.252 99.2702 248.566 99.3742 247.942 99.4573C247.36 99.5405 246.861 99.582 246.446 99.582C244.783 99.582 243.515 99.2079 242.642 98.4596C241.811 97.7114 241.291 96.7968 241.083 95.716L240.896 94.0324C239.483 95.8615 237.716 97.2749 235.596 98.2726C233.476 99.2702 231.314 99.7691 229.111 99.7691C226.949 99.7691 224.995 99.3326 223.249 98.4596C221.545 97.5451 220.194 96.3187 219.196 94.7806C218.24 93.201 217.762 91.4342 217.762 89.4804ZM238.09 91.164C238.547 90.6652 238.921 90.1663 239.212 89.6675C239.503 89.1686 239.649 88.7113 239.649 88.2956V84.9908C238.651 84.5751 237.57 84.2633 236.406 84.0555C235.242 83.806 234.141 83.6813 233.102 83.6813C230.94 83.6813 229.152 84.1594 227.739 85.1155C226.367 86.0301 225.681 87.2564 225.681 88.7945C225.681 89.6259 225.91 90.4157 226.367 91.164C226.824 91.9123 227.49 92.515 228.363 92.9723C229.236 93.4296 230.275 93.6582 231.48 93.6582C232.727 93.6582 233.954 93.4296 235.159 92.9723C236.365 92.4735 237.342 91.8707 238.09 91.164ZM235.97 62.6675L230.607 61.0462L233.975 53.6259H241.769L235.97 62.6675Z" fill="white"/>
</svg>
