<svg width="188" height="251" viewBox="0 0 188 251" fill="none" xmlns="http://www.w3.org/2000/svg">
<path d="M134.531 56.25C141.99 56.25 149.144 53.2868 154.418 48.0124C159.693 42.7379 162.656 35.5842 162.656 28.125C162.656 20.6658 159.693 13.5121 154.418 8.23762C149.144 2.96316 141.99 0 134.531 0C127.072 0 119.918 2.96316 114.643 8.23762C109.369 13.5121 106.406 20.6658 106.406 28.125C106.406 35.5842 109.369 42.7379 114.643 48.0124C119.918 53.2868 127.072 56.25 134.531 56.25V56.25ZM78.0308 83.0125C70.2371 84.95 64.9183 87.8625 60.6246 91.475C54.1871 96.9 48.9871 104.725 41.9621 117.025C40.3169 119.903 37.5957 122.01 34.397 122.882C31.1983 123.755 27.7843 123.32 24.9058 121.675C22.0274 120.03 19.9204 117.309 19.0484 114.11C18.1763 110.911 18.6107 107.497 20.2558 104.619C27.2496 92.3875 34.3183 80.9438 44.5246 72.3563C55.1746 63.3813 68.2121 58.3063 85.7933 56.35C93.1433 55.5375 101.231 55.7 108.812 59.0813C116.768 62.6375 122.581 69.0063 126.543 77.5188C131.881 88.975 135.85 95.7938 139.025 99.7438C140.556 101.644 141.625 102.525 142.231 102.919C142.712 103.231 142.918 103.256 142.993 103.269H143C143.543 103.331 145.306 103.269 150.481 100.975C152.737 99.975 155.2 98.775 158.212 97.3063L158.931 96.9563C162.615 95.1382 166.332 93.3879 170.081 91.7063C173.107 90.3777 176.536 90.3017 179.619 91.495C182.701 92.6883 185.185 95.0537 186.528 98.0737C187.87 101.094 187.962 104.523 186.783 107.61C185.605 110.698 183.251 113.193 180.237 114.55C176.764 116.109 173.319 117.732 169.906 119.419L169.087 119.819C166.206 121.225 163.306 122.644 160.587 123.844C154.962 126.331 147.775 129.031 139.981 128.088C131.756 127.088 125.418 122.444 120.2 116.213L103.118 149.169L126.743 179.906C128.15 181.744 129.018 183.931 129.262 186.231L134.462 236.206C134.66 237.853 134.529 239.522 134.075 241.117C133.622 242.713 132.855 244.202 131.821 245.498C130.786 246.794 129.504 247.871 128.049 248.667C126.594 249.463 124.995 249.961 123.346 250.132C121.696 250.304 120.029 250.146 118.441 249.667C116.853 249.188 115.377 248.398 114.098 247.342C112.818 246.287 111.762 244.988 110.989 243.52C110.217 242.052 109.745 240.446 109.6 238.794L104.762 192.338L90.4121 173.663L90.2871 173.894L89.7621 172.819L63.2496 138.319C61.9463 136.623 61.0998 134.621 60.7913 132.505C60.4827 130.389 60.7223 128.229 61.4871 126.231L78.0308 83.0125V83.0125Z"/>
<path d="M59.1058 156.294L49.9058 181.044L13.6558 178.169C12.0077 178.016 10.3456 178.191 8.76598 178.686C7.18635 179.18 5.72065 179.984 4.45394 181.049C3.18723 182.114 2.14473 183.421 1.38694 184.892C0.629154 186.364 0.171172 187.971 0.0395719 189.621C-0.0920281 191.271 0.105374 192.931 0.620324 194.504C1.13527 196.077 1.95751 197.532 3.03933 198.785C4.12115 200.038 5.441 201.063 6.92228 201.802C8.40356 202.54 10.0168 202.977 11.6683 203.087L57.3433 206.712C60.054 206.928 62.7612 206.254 65.0542 204.792C67.3472 203.331 69.101 201.161 70.0496 198.612L77.0808 179.687L59.1058 156.294Z"/>
</svg>
