<svg viewBox="0 0 802 251" fill="none" xmlns="http://www.w3.org/2000/svg">
<path d="M748.557 56.25C756.017 56.25 763.17 53.2868 768.445 48.0124C773.719 42.7379 776.682 35.5842 776.682 28.125C776.682 20.6658 773.719 13.5121 768.445 8.23762C763.17 2.96316 756.017 0 748.557 0C741.098 0 733.945 2.96316 728.67 8.23762C723.396 13.5121 720.432 20.6658 720.432 28.125C720.432 35.5842 723.396 42.7379 728.67 48.0124C733.945 53.2868 741.098 56.25 748.557 56.25V56.25ZM692.057 83.0125C684.264 84.95 678.945 87.8625 674.651 91.475C668.214 96.9 663.014 104.725 655.989 117.025C654.344 119.903 651.622 122.01 648.424 122.882C645.225 123.755 641.811 123.32 638.932 121.675C636.054 120.03 633.947 117.309 633.075 114.11C632.203 110.911 632.637 107.497 634.282 104.619C641.276 92.3875 648.345 80.9438 658.551 72.3563C669.201 63.3813 682.239 58.3063 699.82 56.35C707.17 55.5375 715.257 55.7 722.839 59.0813C730.795 62.6375 736.607 69.0063 740.57 77.5188C745.907 88.975 749.876 95.7938 753.051 99.7438C754.582 101.644 755.651 102.525 756.257 102.919C756.739 103.231 756.945 103.256 757.02 103.269H757.026C757.57 103.331 759.332 103.269 764.507 100.975C766.764 99.975 769.226 98.775 772.239 97.3063L772.957 96.9563C776.642 95.1382 780.359 93.3879 784.107 91.7063C787.134 90.3777 790.563 90.3017 793.645 91.495C796.727 92.6883 799.211 95.0537 800.554 98.0737C801.897 101.094 801.989 104.523 800.81 107.61C799.631 110.698 797.277 113.193 794.264 114.55C790.79 116.109 787.346 117.732 783.932 119.419L783.114 119.819C780.232 121.225 777.332 122.644 774.614 123.844C768.989 126.331 761.801 129.031 754.007 128.088C745.782 127.088 739.445 122.444 734.226 116.213L717.145 149.169L740.77 179.906C742.176 181.744 743.045 183.931 743.289 186.231L748.489 236.206C748.687 237.853 748.555 239.522 748.102 241.117C747.648 242.713 746.882 244.202 745.847 245.498C744.813 246.794 743.531 247.871 742.076 248.667C740.62 249.463 739.022 249.961 737.372 250.132C735.723 250.304 734.055 250.146 732.468 249.667C730.88 249.188 729.403 248.398 728.124 247.342C726.845 246.287 725.788 244.988 725.016 243.52C724.244 242.052 723.771 240.446 723.626 238.794L718.789 192.338L704.439 173.663L704.314 173.894L703.789 172.819L677.276 138.319C675.973 136.623 675.126 134.621 674.818 132.505C674.509 130.389 674.749 128.229 675.514 126.231L692.057 83.0125V83.0125Z"/>
<path d="M673.132 156.294L663.932 181.044L627.682 178.169C626.034 178.016 624.372 178.191 622.792 178.686C621.213 179.18 619.747 179.984 618.48 181.049C617.214 182.114 616.171 183.421 615.413 184.892C614.656 186.364 614.198 187.971 614.066 189.621C613.934 191.271 614.132 192.931 614.647 194.504C615.162 196.077 615.984 197.532 617.066 198.785C618.148 200.038 619.467 201.063 620.949 201.802C622.43 202.54 624.043 202.977 625.695 203.087L671.37 206.712C674.08 206.928 676.788 206.254 679.081 204.792C681.374 203.331 683.127 201.161 684.076 198.612L691.107 179.687L673.132 156.294Z"/>
<path d="M434.028 10L494.028 70H514.028C554.028 70 554.028 10 514.028 10H434.028ZM443.288 50C440.893 50.1802 438.642 51.2168 436.948 52.92L386.948 102.92C385.951 103.916 385.176 105.111 384.673 106.427C384.171 107.744 383.952 109.151 384.031 110.558C384.11 111.965 384.486 113.339 385.134 114.591C385.781 115.842 386.686 116.943 387.788 117.82L430.948 152.34L405.428 194.84C404.751 195.969 404.302 197.221 404.108 198.524C403.915 199.827 403.979 201.155 404.299 202.432C404.618 203.71 405.186 204.913 405.97 205.971C406.754 207.029 407.739 207.922 408.868 208.6C409.998 209.278 411.25 209.726 412.552 209.92C413.855 210.114 415.183 210.049 416.461 209.73C419.041 209.085 421.26 207.441 422.628 205.16L452.628 155.16C453.88 153.081 454.332 150.618 453.902 148.23C453.471 145.841 452.187 143.691 450.288 142.18L420.108 118.04L454.028 84.14L476.948 107.08C477.879 108.008 478.983 108.744 480.198 109.245C481.413 109.746 482.714 110.002 484.028 110H534.028C536.681 110 539.224 108.946 541.099 107.071C542.975 105.196 544.028 102.652 544.028 100C544.028 97.3478 542.975 94.8043 541.099 92.9289C539.224 91.0536 536.681 90 534.028 90H488.168L451.108 52.92C450.092 51.8987 448.867 51.109 447.518 50.605C446.168 50.101 444.725 49.8947 443.288 50ZM333.008 130C317.095 130.265 301.939 136.841 290.875 148.281C279.81 159.72 273.743 175.087 274.008 191C274.274 206.913 280.849 222.069 292.289 233.134C303.729 244.198 319.095 250.265 335.008 250C350.921 249.737 366.078 243.164 377.145 231.726C388.211 220.289 394.281 204.923 394.018 189.01C393.756 173.097 387.183 157.94 375.745 146.874C364.307 135.807 348.941 129.737 333.028 130H333.008ZM513.008 130C497.095 130.265 481.939 136.841 470.875 148.281C459.81 159.72 453.743 175.087 454.008 191C454.274 206.913 460.849 222.069 472.289 233.134C483.729 244.198 499.095 250.265 515.008 250C530.921 249.737 546.078 243.164 557.145 231.726C568.211 220.289 574.281 204.923 574.018 189.01C573.756 173.097 567.183 157.94 555.745 146.874C544.307 135.807 528.941 129.737 513.028 130H513.008ZM515.008 150C520.328 150.024 525.59 151.109 530.486 153.192C535.382 155.274 539.812 158.313 543.519 162.129C547.226 165.945 550.135 170.462 552.074 175.416C554.014 180.37 554.946 185.661 554.816 190.98C554.685 196.298 553.495 201.537 551.315 206.39C549.135 211.243 546.009 215.613 542.119 219.243C538.23 222.873 533.655 225.69 528.664 227.53C523.672 229.371 518.363 230.197 513.048 229.96C502.586 229.495 492.724 224.945 485.58 217.288C478.435 209.632 474.578 199.478 474.837 189.009C475.097 178.54 479.451 168.59 486.966 161.296C494.481 154.003 504.556 149.947 515.028 150H515.008Z"/>
<path d="M164.674 215.247C163.38 216.33 159.091 218.375 152.1 218.375C145.109 218.375 140.817 216.33 139.526 215.247C133.669 210.343 126.912 207.75 119.98 207.75H114.02C107.088 207.75 100.328 210.343 94.4738 215.247C93.1795 216.33 88.8907 218.375 81.9 218.375C74.9092 218.375 70.6168 216.33 69.3261 215.247C63.893 210.695 57.67 208.235 51.2679 207.889L92.5251 181.128L85.9438 176.858C84.6129 176.001 82.9164 175.689 81.3296 175.991L29.7895 182.094C20.3161 183.93 19.3911 183.548 17.3582 174.945C15.329 166.339 29.2886 165.467 38.7692 163.621L81.3296 156.199C92.5653 154.014 113.351 157.558 122.689 163.621L135.61 169.905C139.405 172.359 142.689 175.364 145.38 178.85L170.473 211.402C168.473 212.475 166.517 213.703 164.674 215.247ZM5.85001 229H11.7C21.2209 229 28.4456 226.204 32.2079 223.057C35.462 220.331 39.3961 218.375 43.8238 218.375H49.7835C54.2112 218.375 58.1453 220.331 61.3994 223.057C65.1544 226.204 72.3791 229 81.9 229C91.4209 229 98.6456 226.204 102.408 223.057C105.662 220.331 109.596 218.375 114.024 218.375H119.984C124.411 218.375 128.345 220.331 131.599 223.057C135.354 226.204 142.579 229 152.1 229C161.621 229 168.846 226.204 172.608 223.057C175.862 220.331 179.796 218.375 184.224 218.375H190.184C194.611 218.375 198.545 220.331 201.799 223.057C205.554 226.204 212.779 229 222.3 229H228.15C231.382 229 234 231.377 234 234.313V244.938C234 247.873 231.382 250.25 228.15 250.25H222.3C208.18 250.25 195.712 246.203 187.2 239.678C178.688 246.206 166.22 250.25 152.1 250.25C137.98 250.25 125.512 246.203 117 239.678C108.488 246.206 96.0204 250.25 81.9 250.25C67.7796 250.25 55.3118 246.203 46.8 239.678C38.2883 246.206 25.8204 250.25 11.7 250.25H5.85001C2.61788 250.25 0 247.873 0 244.938V234.313C0 231.377 2.61788 229 5.85001 229ZM193.05 197.125C176.897 197.125 163.8 185.232 163.8 170.563C163.8 155.893 176.897 144 193.05 144C209.203 144 222.3 155.893 222.3 170.563C222.3 185.232 209.203 197.125 193.05 197.125Z"/>
</svg>
